<?xml version="1.0" encoding="UTF-8" standalone="no"?>
<svg
   width="16"
   height="16"
   version="1.1"
   id="svg11"
   xml:space="preserve"
   xmlns:xlink="http://www.w3.org/1999/xlink"
   xmlns="http://www.w3.org/2000/svg"
   xmlns:svg="http://www.w3.org/2000/svg"><defs
     id="defs15"><linearGradient
       id="linearGradient1027"><stop
         style="stop-color:#000000;stop-opacity:1;"
         offset="0"
         id="stop1025" /></linearGradient><linearGradient
       id="a-4"
       x2="0"
       y1="1"
       y2="15"
       gradientUnits="userSpaceOnUse"
       gradientTransform="translate(-2.6391283,-0.54412748)"><stop
         offset="0"
         stop-color="#ff5f5f"
         id="stop2-7" /><stop
         offset="0.55090302"
         stop-color="#e1da5b"
         id="stop4-2" /><stop
         offset="1"
         stop-color="#5fff97"
         id="stop6-8" /></linearGradient><linearGradient
       xlink:href="#a-4"
       id="linearGradient7823"
       x1="7.1202888"
       y1="1.8556062"
       x2="7.0133581"
       y2="13.87477"
       gradientUnits="userSpaceOnUse" /></defs><linearGradient
     id="a"
     x2="0"
     y1="1"
     y2="15"
     gradientUnits="userSpaceOnUse"><stop
       offset="0"
       stop-color="#ff5f5f"
       id="stop2" /><stop
       offset=".5"
       stop-color="#e1da5b"
       id="stop4" /><stop
       offset="1"
       stop-color="#5fff97"
       id="stop6" /></linearGradient><path
     d="M 11.635083,12.479562 H 9.322122 c -0.315287,0 -0.173502,-0.24711 -0.02629,-0.252367 l 0.888368,-0.07361 c 0.368035,-0.0368 0.856994,-0.0999 1.366851,-0.147213 l 0.262884,-0.01055 c 0.01056,-0.06835 0.03154,-0.136698 0.04732,-0.210305 l -0.352262,0.01056 -1.950186,-0.01056 c -0.3102,0 -0.173502,-0.24168 -0.02103,-0.252195 l 0.883111,-0.07887 c 0.368034,-0.03154 0.867338,-0.09463 1.372109,-0.136698 l 0.152472,-0.01578 c 0.0051,-0.07887 0.0051,-0.157729 0.02103,-0.231335 H 9.648278 c -0.315458,0 -0.17876,-0.252367 -0.02629,-0.257624 l 0.883111,-0.08412 c 0.368035,-0.03154 0.835793,-0.08938 1.340564,-0.131441 h 0.09989 c -0.0051,-0.08394 -0.0051,-0.178588 -0.02103,-0.246938 l -0.389064,0.01052 -1.950187,-0.01052 c -0.3102,0 -0.184017,-0.231335 -0.02629,-0.252366 L 10.44735,10.0298 c 0.35752,-0.0368 0.57834,-0.04732 1.088158,-0.09989 l 0.310208,-0.04206 c -0.03154,-0.08938 -0.06309,-0.147214 -0.09463,-0.236593 l -0.462671,0.0052 -1.955443,-0.0052 c -0.315286,0 -0.184017,-0.24168 -0.02629,-0.257452 l 0.883108,-0.07887 c 0.368032,-0.03155 0.835962,-0.09464 1.34582,-0.1366986 -0.05257,-0.078865 -0.09989,-0.1840172 -0.147213,-0.2628822 l -0.467757,0.01052 H 8.959931 C 8.649731,8.9153893 8.781171,8.6893159 8.928381,8.6735429 l 0.898883,-0.084122 c 0.283911,-0.031546 0.804247,-0.089381 1.287949,-0.1366983 L 10.968009,8.2215657 H 8.602471 c -0.304943,0 -0.17876,-0.2471081 -0.03155,-0.2523659 l 0.898883,-0.078865 c 0.294427,-0.02103 0.772699,-0.094638 1.224855,-0.1261825 l -0.15247,-0.2523661 c -0.13144,0 -0.247108,0.00521 -0.367864,0.00521 L 8.21862,7.5117862 c -0.304771,0 -0.178759,-0.2311652 -0.02629,-0.2574536 L 9.085955,7.1807256 C 9.411928,7.1491796 9.811508,7.1071176 10.284524,7.0492849 L 10.147995,6.8126911 9.82728,6.8179011 7.882353,6.8126911 c -0.320715,0 -0.194532,-0.2471082 -0.03155,-0.2628811 L 8.73917,6.476202 C 9.101776,6.444656 9.60125,6.381564 10.11128,6.3289884 l 3.301264,-0.2101346 -0.05257,-0.089381 -3.905893,0.073608 -1.950186,-0.01052 c -0.315458,0 -0.189275,-0.236593 -0.02629,-0.2523659 L 8.365972,5.7665879 C 8.728749,5.7245259 9.222795,5.6719499 9.732824,5.624632 l 3.31178,-0.2103044 -0.05257,-0.099895 -3.921666,0.084122 -1.950185,-0.01052 C 6.804889,5.3828346 6.936159,5.1514515 7.093883,5.1305919 L 7.987511,5.0517269 C 8.339772,5.0254379 8.839247,4.9623459 9.349106,4.9150285 l 3.322296,-0.2103047 -0.04207,-0.099895 -3.953079,0.084122 -1.955444,-0.00521 C 6.415892,4.6679595 6.542075,4.4471387 6.699804,4.4261081 l 0.888368,-0.078865 c 0.368034,-0.031546 0.856822,-0.08938 1.37211,-0.1472135 l 3.33281,-0.1943617 -0.05784,-0.1156681 -3.558888,0.073608 -0.389065,0.015773 -1.944928,-0.015773 c -0.320715,0 -0.189275,-0.2365928 -0.02629,-0.2523659 l 0.877853,-0.078865 c 0.331231,-0.02103 0.793731,-0.073608 1.251145,-0.126184 L 8.329415,3.2590839 7.89846,3.2696039 5.948012,3.2590839 c -0.315287,0 -0.189104,-0.2365939 -0.02103,-0.252367 l 0.878025,-0.084123 c 0.362605,-0.026288 0.856822,-0.09446 1.377104,-0.1260072 l 3.427447,-0.2155976 -0.05783,-0.099894 -4.037201,0.068349 H 5.559079 C 5.248879,2.5442341 5.375062,2.307593 5.527529,2.3023352 L 6.426413,2.2129542 C 6.783932,2.1866652 7.283235,2.1288322 7.798522,2.076256 l 3.427449,-0.2206498 -0.04206,-0.084122 -4.063622,0.084122 -1.950185,-0.010687 c -0.299685,0 -0.17876,-0.236422 -0.02629,-0.2574526 L 6.032182,1.5086016 C 6.389701,1.4717986 6.89952,1.4139646 7.399034,1.3719033 l 3.44848,-0.2155622 -0.04732,-0.094637 -4.058233,0.068349 -1.950449,-0.00521 c -0.315287,0 -0.183846,-0.23133616 -0.02629,-0.24710916 l 0.888537,-0.07887 c 0.36787,-0.026277 0.862087,-0.09445 1.371854,-0.1417737 l 3.443222,-0.2313362 -0.04732,-0.078865 -7.196511,0.047319 3.837412,7.22805606 C 6.705068,7.7274165 6.342292,7.8798877 6.005804,8.0639049 3.855828,9.2835033 2.85701,11.832966 3.797994,13.751737 c 0.851736,1.750396 3.04903,2.36015 5.062439,1.545348 l -0.415353,0.01056 -1.944928,-0.01056 c -0.320715,0 -0.184017,-0.236592 -0.01577,-0.252365 l 0.877853,-0.07343 c 0.362776,-0.03698 0.86208,-0.09989 1.366852,-0.147215 l 1.167021,-0.07361 c 0.08412,-0.04205 0.173503,-0.110405 0.252367,-0.168238 l -0.6204,0.02103 -1.955443,-0.01056 c -0.3102,0 -0.173502,-0.241852 -0.01577,-0.252364 l 0.883111,-0.07887 c 0.362776,-0.0368 0.856822,-0.09463 1.372109,-0.141957 l 0.830534,-0.05257 c 0.05784,-0.06309 0.105158,-0.115663 0.162986,-0.173503 l -0.53102,0.01056 -1.955443,-0.01056 c -0.3102,0 -0.184017,-0.246935 -0.02103,-0.252193 L 9.18122,13.56237 c 0.362776,-0.0368 0.862251,-0.09989 1.372109,-0.141956 l 0.630915,-0.03154 c 0.04206,-0.05784 0.06834,-0.120931 0.115497,-0.184018 l -0.44147,0.01056 -1.950185,-0.01056 c -0.315458,0 -0.178759,-0.241851 -0.01577,-0.257623 l 0.888368,-0.06835 c 0.368034,-0.0368 0.851565,-0.09989 1.361594,-0.147044 l 0.409926,-0.03154 c 0.0368,-0.06309 0.05784,-0.141956 0.08412,-0.22082 z"
     fill="#ed1c24"
     stroke="#ed1c24"
     stroke-miterlimit="2.613"
     stroke-width="0.073607"
     id="path6973"
     style="stroke:none;fill-opacity:1;fill:url(#linearGradient7823);stroke-width:0;stroke-dasharray:none" /></svg>
